<?xml version="1.0" encoding="UTF-8"?>
<svg xmlns="http://www.w3.org/2000/svg" xmlns:xlink="http://www.w3.org/1999/xlink" width="50px" height="50px" viewBox="0 0 50 50" version="1.1">
<g id="surface1">
<path style="fill-rule:nonzero;fill:rgb(87.45098%,90.196078%,99.215686%);fill-opacity:1;stroke-width:9.1376;stroke-linecap:butt;stroke-linejoin:miter;stroke:rgb(96.078431%,96.862745%,99.607843%);stroke-opacity:1;stroke-miterlimit:10;" d="M 344.8 456 L 138 456 C 92.72 456 56 419.28 56 374 L 56 167.2 C 56 121.92 92.72 85.2 138 85.2 L 344.8 85.2 C 390.08 85.2 426.8 121.92 426.8 167.2 L 426.8 374 C 426.8 419.28 390.08 456 344.8 456 Z M 344.8 456 " transform="matrix(0.0976562,0,0,0.0976562,0,0)"/>
<path style=" stroke:none;fill-rule:nonzero;fill:rgb(16.470588%,41.176471%,90.196078%);fill-opacity:1;" d="M 31.621094 30.304688 L 22.898438 30.304688 C 22.195312 30.304688 21.621094 29.726562 21.621094 29.023438 L 21.621094 28.632812 C 21.621094 27.929688 22.195312 27.351562 22.898438 27.351562 L 31.621094 27.351562 C 32.324219 27.351562 32.898438 27.929688 32.898438 28.632812 L 32.898438 29.023438 C 32.898438 29.726562 32.324219 30.304688 31.621094 30.304688 Z M 31.621094 30.304688 "/>
<path style=" stroke:none;fill-rule:nonzero;fill:rgb(16.470588%,41.176471%,90.196078%);fill-opacity:1;" d="M 35.320312 34.929688 L 22.898438 34.929688 C 22.195312 34.929688 21.621094 34.355469 21.621094 33.652344 L 21.621094 33.261719 C 21.621094 32.558594 22.195312 31.980469 22.898438 31.980469 L 35.332031 31.980469 C 36.035156 31.980469 36.609375 32.558594 36.609375 33.261719 L 36.609375 33.652344 C 36.601562 34.355469 36.035156 34.929688 35.320312 34.929688 Z M 35.320312 34.929688 "/>
<path style=" stroke:none;fill-rule:nonzero;fill:rgb(16.470588%,41.176471%,90.196078%);fill-opacity:1;" d="M 35.320312 39.5625 L 22.898438 39.5625 C 22.195312 39.5625 21.621094 38.984375 21.621094 38.28125 L 21.621094 37.890625 C 21.621094 37.1875 22.195312 36.609375 22.898438 36.609375 L 35.332031 36.609375 C 36.035156 36.609375 36.609375 37.1875 36.609375 37.890625 L 36.609375 38.28125 C 36.601562 38.984375 36.035156 39.5625 35.320312 39.5625 Z M 35.320312 39.5625 "/>
<path style=" stroke:none;fill-rule:nonzero;fill:rgb(29.803922%,69.411765%,32.156863%);fill-opacity:1;" d="M 18.652344 35.421875 L 18.984375 35.203125 C 19.539062 34.835938 19.882812 34.34375 19.953125 33.796875 C 20.019531 33.289062 19.851562 32.765625 19.511719 32.375 C 19.171875 31.984375 18.679688 31.757812 18.15625 31.757812 C 17.675781 31.757812 17.226562 31.941406 16.882812 32.273438 C 16.503906 32.65625 16.320312 33.066406 16.335938 33.507812 C 16.359375 34.082031 16.71875 34.6875 17.382812 35.265625 L 17.648438 35.488281 L 15.457031 41.164062 L 15.007812 40.996094 C 13.613281 40.480469 12.296875 39.40625 11.394531 38.046875 C 10.351562 36.484375 9.902344 34.660156 10.097656 32.773438 C 10.496094 28.78125 13.671875 25.714844 17.625 25.488281 C 17.792969 25.480469 17.960938 25.480469 18.117188 25.480469 C 19.992188 25.480469 21.816406 26.105469 23.25 27.257812 C 24.6875 28.398438 25.695312 30.019531 26.074219 31.808594 C 27.011719 36.183594 24.394531 39.757812 21.335938 41.027344 L 20.878906 41.222656 Z M 18.652344 35.421875 "/>
<path style=" stroke:none;fill-rule:nonzero;fill:rgb(87.45098%,90.196078%,99.215686%);fill-opacity:1;" d="M 18.125 25.964844 C 21.777344 25.964844 24.875 28.425781 25.605469 31.90625 C 26.445312 35.859375 24.199219 39.304688 21.152344 40.566406 C 20.515625 38.925781 19.882812 37.285156 19.25 35.625 C 20.78125 34.617188 20.695312 32.988281 19.882812 32.058594 C 19.433594 31.542969 18.796875 31.277344 18.164062 31.277344 C 17.578125 31.277344 17 31.492188 16.554688 31.941406 C 15.46875 33.015625 15.664062 34.421875 17.070312 35.644531 C 16.445312 37.273438 15.8125 38.914062 15.1875 40.546875 C 12.695312 39.628906 10.195312 36.667969 10.585938 32.832031 C 10.96875 29.003906 14.015625 26.191406 17.664062 25.984375 C 17.8125 25.964844 17.96875 25.964844 18.125 25.964844 M 18.125 24.992188 C 17.949219 24.992188 17.78125 25 17.609375 25.011719 C 13.398438 25.242188 10.039062 28.496094 9.617188 32.734375 C 9.414062 34.738281 9.890625 36.671875 10.996094 38.332031 C 11.953125 39.777344 13.359375 40.917969 14.851562 41.464844 L 15.761719 41.796875 L 16.101562 40.898438 L 17.265625 37.871094 L 17.988281 35.996094 L 18.171875 35.519531 L 18.351562 35.96875 L 19.433594 38.78125 L 20.253906 40.910156 L 20.617188 41.847656 L 21.542969 41.464844 C 23.289062 40.742188 24.765625 39.414062 25.703125 37.714844 C 26.71875 35.878906 27.023438 33.800781 26.570312 31.699219 C 26.160156 29.796875 25.097656 28.085938 23.574219 26.867188 C 22.039062 25.65625 20.109375 24.992188 18.125 24.992188 Z M 18.085938 35.214844 L 17.714844 34.890625 C 17.167969 34.414062 16.855469 33.914062 16.835938 33.484375 C 16.828125 33.183594 16.960938 32.898438 17.246094 32.617188 C 17.488281 32.375 17.820312 32.238281 18.164062 32.238281 C 18.542969 32.238281 18.90625 32.402344 19.148438 32.6875 C 19.402344 32.96875 19.519531 33.359375 19.472656 33.722656 C 19.414062 34.132812 19.160156 34.492188 18.71875 34.785156 Z M 18.085938 35.214844 "/>
<path style=" stroke:none;fill-rule:nonzero;fill:rgb(16.470588%,41.176471%,90.196078%);fill-opacity:1;" d="M 31.757812 13.78125 C 32.296875 13.78125 32.597656 14.199219 32.429688 14.707031 L 29.707031 23.105469 C 29.539062 23.613281 28.964844 24.03125 28.425781 24.03125 L 27.273438 24.03125 C 26.738281 24.03125 26.160156 23.613281 26.003906 23.105469 L 24.628906 18.730469 C 24.460938 18.222656 24.199219 18.210938 24.03125 18.730469 L 22.585938 23.117188 C 22.421875 23.625 21.84375 24.042969 21.308594 24.042969 L 20.15625 24.042969 C 19.617188 24.042969 19.042969 23.625 18.875 23.117188 L 16.152344 14.71875 C 15.984375 14.210938 16.289062 13.789062 16.824219 13.789062 L 17.871094 13.789062 C 18.40625 13.789062 18.984375 14.210938 19.140625 14.71875 L 20.617188 19.40625 C 20.78125 19.914062 21.046875 19.921875 21.21875 19.40625 L 22.773438 14.707031 C 22.9375 14.199219 23.515625 13.78125 24.054688 13.78125 L 24.765625 13.78125 C 25.304688 13.78125 25.867188 14.199219 26.035156 14.707031 L 27.519531 19.453125 C 27.675781 19.960938 27.949219 19.972656 28.117188 19.453125 L 29.667969 14.707031 C 29.835938 14.199219 30.410156 13.78125 30.949219 13.78125 Z M 31.757812 13.78125 "/>
<path style=" stroke:none;fill-rule:nonzero;fill:rgb(58.823529%,47.843137%,92.941176%);fill-opacity:1;" d="M 44.53125 11.046875 C 44.53125 14.125 42.035156 16.621094 38.953125 16.621094 C 35.875 16.621094 33.378906 14.125 33.378906 11.046875 C 33.378906 7.964844 35.875 5.46875 38.953125 5.46875 C 42.035156 5.46875 44.53125 7.964844 44.53125 11.046875 Z M 44.53125 11.046875 "/>
<path style=" stroke:none;fill-rule:nonzero;fill:rgb(100%,100%,100%);fill-opacity:1;" d="M 35.085938 12.207031 C 35.03125 12.148438 35 12.070312 35 11.984375 C 35 11.894531 35.03125 11.816406 35.085938 11.757812 C 35.148438 11.699219 35.214844 11.671875 35.304688 11.671875 C 35.390625 11.671875 35.460938 11.699219 35.515625 11.757812 C 35.578125 11.816406 35.605469 11.882812 35.605469 11.984375 C 35.605469 12.070312 35.574219 12.148438 35.515625 12.207031 C 35.460938 12.265625 35.390625 12.296875 35.304688 12.296875 C 35.226562 12.296875 35.15625 12.265625 35.085938 12.207031 Z M 35.085938 12.207031 "/>
<path style=" stroke:none;fill-rule:nonzero;fill:rgb(100%,100%,100%);fill-opacity:1;" d="M 38.417969 9.667969 L 38.417969 12.265625 L 38.015625 12.265625 L 36.582031 10.507812 L 36.582031 12.265625 L 36.101562 12.265625 L 36.101562 9.667969 L 36.503906 9.667969 L 37.9375 11.425781 L 37.9375 9.667969 Z M 38.417969 9.667969 "/>
<path style=" stroke:none;fill-rule:nonzero;fill:rgb(100%,100%,100%);fill-opacity:1;" d="M 41.074219 11.867188 L 41.074219 12.265625 L 39.121094 12.265625 L 39.121094 9.667969 L 41.015625 9.667969 L 41.015625 10.070312 L 39.601562 10.070312 L 39.601562 10.742188 L 40.859375 10.742188 L 40.859375 11.140625 L 39.601562 11.140625 L 39.601562 11.855469 L 41.074219 11.855469 Z M 41.074219 11.867188 "/>
<path style=" stroke:none;fill-rule:nonzero;fill:rgb(100%,100%,100%);fill-opacity:1;" d="M 42.140625 10.078125 L 41.28125 10.078125 L 41.28125 9.667969 L 43.484375 9.667969 L 43.484375 10.078125 L 42.625 10.078125 L 42.625 12.265625 L 42.148438 12.265625 L 42.148438 10.078125 Z M 42.140625 10.078125 "/>
</g>
</svg>
